<?xml version="1.0" encoding="iso-8859-1"?>
<!-- Generator: Adobe Illustrator 16.0.0, SVG Export Plug-In . SVG Version: 6.00 Build 0)  -->
<!DOCTYPE svg PUBLIC "-//W3C//DTD SVG 1.1//EN" "http://www.w3.org/Graphics/SVG/1.1/DTD/svg11.dtd">
<svg xmlns="http://www.w3.org/2000/svg" xmlns:xlink="http://www.w3.org/1999/xlink" version="1.1" id="Capa_1" x="0px" y="0px" width="512px" height="512px" viewBox="0 0 574.097 574.096" style="enable-background:new 0 0 574.097 574.096;" xml:space="preserve">
<g>
	<g>
		<polygon points="135.986,319.301 165.551,254.794 186.525,254.794 156.96,319.301   " fill="#FFFFFF"/>
		<polygon points="109.109,319.301 138.674,254.794 159.648,254.794 130.083,319.301   " fill="#FFFFFF"/>
		<polygon points="82.232,319.301 111.797,254.794 132.771,254.794 103.207,319.301   " fill="#FFFFFF"/>
		<polygon points="55.354,319.301 84.92,254.794 105.894,254.794 76.329,319.301   " fill="#FFFFFF"/>
		<polygon points="28.478,319.301 58.042,254.794 79.017,254.794 49.452,319.301   " fill="#FFFFFF"/>
		<polygon points="1.601,319.301 31.166,254.794 52.14,254.794 22.575,319.301   " fill="#FFFFFF"/>
		<polygon points="25.263,254.794 0,309.621 0,254.794   " fill="#FFFFFF"/>
		<polygon points="199.963,319.301 162.863,319.301 192.428,254.794 199.963,254.794   " fill="#FFFFFF"/>
		<g>
			<rect x="207.491" y="236.518" width="32.252" height="101.061" fill="#FFFFFF"/>
			<path d="M245.119,254.794v60.739h249.418c42.468,0,72.031-46.762,79.56-60.739H245.119z M442.935,274.146H263.933     c-1.625,0-2.688-1.076-2.688-2.688c0-1.614,1.063-2.688,2.688-2.688h179.002c1.606,0,2.688,1.074,2.688,2.688     C445.622,273.07,444.541,274.146,442.935,274.146z M487.544,274.146h-31.711c-1.617,0-2.688-1.076-2.688-2.688     c0-1.614,1.07-2.688,2.688-2.688h31.711c1.618,0,2.688,1.074,2.688,2.688C490.231,273.07,489.162,274.146,487.544,274.146z" fill="#FFFFFF"/>
		</g>
	</g>
</g>
<g>
</g>
<g>
</g>
<g>
</g>
<g>
</g>
<g>
</g>
<g>
</g>
<g>
</g>
<g>
</g>
<g>
</g>
<g>
</g>
<g>
</g>
<g>
</g>
<g>
</g>
<g>
</g>
<g>
</g>
</svg>
