<?xml version="1.0"?>
<svg xmlns="http://www.w3.org/2000/svg" height="512px" viewBox="0 -3 448 448" width="512px"><path d="m438 232h-54v-130.601562c0-27.597657-22.601562-50.398438-50.101562-50.398438h-27.898438v-20.5c0-16.5-13-30.5-29.5-30.5h-105c-16.757812.207031-30.292969 13.742188-30.5 30.5v20.5h-26.898438c-27.5 0-50.101562 22.800781-50.101562 50.398438v130.601562h-54c-5.5 0-10 4.898438-10 10.5v100c.0429688 7.898438 3.234375 15.453125 8.863281 20.988281 5.632813 5.539063 13.238281 8.601563 21.136719 8.511719h34v39.5c0 16.5 13.601562 30.5 30.101562 30.5h259.796876c16.5 0 30.101562-13.898438 30.101562-30.5v-39.5h34c7.898438.089844 15.503906-2.972656 21.136719-8.511719 5.628906-5.535156 8.820312-13.089843 8.863281-20.988281v-100c0-5.601562-4.5-10.5-10-10.5zm-277-201.5c.210938-5.710938 4.789062-10.289062 10.5-10.5h105c5.5 0 9.5 4.898438 9.5 10.5v20.5h-125zm-46.898438 40.5h219.699219c16.5 0 30.097657 13.800781 30.097657 30.398438v43.601562l-110.296876 51.5c-18.824218 8.800781-40.578124 8.800781-59.402343 0l-110.199219-51.5v-43.601562c0-16.597657 13.601562-30.398438 30.101562-30.398438zm-84.101562 281c-5.5 0-10-4-10-9.5v-90.5h44v100zm120 70v-76.5c0-11 9-20.5 20-20.5h108c11 0 20 9.398438 20 20.5v76.5zm214-10.5c0 5.5-4.601562 10.5-10.101562 10.5h-35.898438v-76.5c0-22.101562-17.898438-40.5-40-40.5h-108c-22.101562 0-40 18.398438-40 40.5v76.5h-35.898438c-5.5 0-10.101562-4.898438-10.101562-10.5v-244.5l101.800781 47.5c24.171875 11.332031 52.128907 11.332031 76.300781 0l101.898438-47.398438zm64-69c0 5.5-4.5 9.5-10 9.5h-34v-100h44zm0 0" fill="#FFFFFF"/><path d="m200 164h48c5.523438 0 10-4.476562 10-10s-4.476562-10-10-10h-48c-5.523438 0-10 4.476562-10 10s4.476562 10 10 10zm0 0" fill="#FFFFFF"/></svg>
